<svg aria-hidden="true" style="position: absolute; width: 0; height: 0; overflow: hidden;" version="1.1" xmlns="http://www.w3.org/2000/svg" xmlns:xlink="http://www.w3.org/1999/xlink">
<defs>
<symbol id="icon-flag-o" viewBox="0 0 29 28">
<path d="M26 16.328v-9.625c-1.25 0.672-3 1.422-4.781 1.422v0c-0.828 0-1.594-0.156-2.266-0.5-1.672-0.828-3.484-1.625-5.656-1.625-2.016 0-4.484 0.984-6.297 1.984v9.359c2.063-0.953 4.688-1.766 6.766-1.766 2.406 0 3.969 0.797 5.641 1.625l0.438 0.219c0.438 0.219 0.969 0.344 1.578 0.344 1.734 0 3.609-0.922 4.578-1.437zM5 4c0 0.734-0.406 1.375-1 1.719v19.781c0 0.281-0.219 0.5-0.5 0.5h-1c-0.281 0-0.5-0.219-0.5-0.5v-19.781c-0.594-0.344-1-0.984-1-1.719 0-1.109 0.891-2 2-2s2 0.891 2 2zM28 5v11.922c0 0.375-0.219 0.719-0.547 0.891-0.063 0.031-0.156 0.078-0.266 0.141-1 0.531-3.359 1.813-5.766 1.813-0.922 0-1.75-0.187-2.469-0.547l-0.438-0.219c-1.578-0.797-2.828-1.422-4.75-1.422-2.25 0-5.422 1.172-7.25 2.281-0.156 0.094-0.344 0.141-0.516 0.141s-0.344-0.047-0.5-0.125c-0.313-0.187-0.5-0.516-0.5-0.875v-11.594c0-0.344 0.187-0.672 0.484-0.859 1-0.594 4.531-2.547 7.812-2.547 2.609 0 4.734 0.953 6.531 1.828 0.406 0.203 0.875 0.297 1.391 0.297 1.844 0 3.875-1.172 4.844-1.75 0.203-0.109 0.375-0.203 0.484-0.266 0.313-0.156 0.672-0.141 0.969 0.031 0.297 0.187 0.484 0.516 0.484 0.859z"></path>
</symbol>
<symbol id="icon-envira" viewBox="0 0 30 28">
<path d="M14 12.75c-1.984-3.75-3.813-7.406-9.016-9.875-3.109-1.469-0.328 0.578-0.328 0.578 2.828 1.953 4.125 4.594 5.641 7.484 1.969 3.766 4.937 8.734 9.016 10.484 4.062 1.75 2.141 0.781 0.375-0.531-1.766-1.328-4.266-5.437-5.688-8.141zM8.578 21.234c-5.641-4.469-5.328-9.812-8.578-21.234 29.859 0 22.922 19.828 22.953 22.891l5.047 5.109h-1.625l-4.391-4.453c-2.438 0.266-7.781 2.156-13.406-2.312z"></path>
</symbol>
<symbol id="icon-sign-language" viewBox="0 0 26 28">
<path d="M12.984 10.516c0.328 0 0.641 0.094 0.922 0.281l3.469 2.312c0.641 0.422 1.219 0.938 1.719 1.516l2.281 2.656c0.391 0.453 0.562 1.062 0.453 1.656l-1.125 6.453c-0.125 0.656-0.656 1.156-1.328 1.234l-8.234 0.875-5.5 0.5h-0.141c-0.812 0-1.5-0.656-1.5-1.5 0-0.781 0.656-1.406 1.437-1.5l4.062-0.5h-7c-0.859 0-1.547-0.719-1.5-1.578 0.047-0.812 0.766-1.422 1.578-1.422l6.906-0.016-8.141-1c-0.844-0.094-1.453-0.859-1.328-1.719 0.125-0.75 0.812-1.25 1.563-1.25h0.156l7.516 0.938-5.484-1.469c-0.781-0.203-1.375-0.922-1.25-1.719 0.125-0.75 0.766-1.266 1.484-1.266 0.109 0 0.203 0.016 0.313 0.031l7 1.5 3.391 0.578c0.031 0 0.063 0.016 0.094 0.016 0.469 0 0.703-0.641 0.281-0.922l-2.906-1.953c-0.719-0.484-0.891-1.453-0.375-2.141 0.281-0.391 0.734-0.594 1.188-0.594zM11.891 13.672l2.906 1.953-3.406-0.578-0.078-0.031-0.562-0.594-3.719-4.094c-0.031-0.031-0.047-0.078-0.078-0.109-0.484-0.641-0.375-1.578 0.297-2.094 0.625-0.484 1.516-0.328 2.063 0.25l2.219 2.297c-0.047 0.047-0.094 0.078-0.141 0.125-0.328 0.453-0.453 1-0.359 1.547 0.094 0.531 0.406 1.016 0.859 1.328zM25.75 6.578l0.234 4.156c0.047 0.766-0.016 1.547-0.172 2.297l-0.75 3.422c-0.125 0.594-0.5 1.078-1.047 1.359l-1.656 0.844c0.016-0.625-0.187-1.219-0.609-1.703l-2.281-2.656c-0.531-0.609-1.141-1.156-1.828-1.609l-3.469-2.312c-0.344-0.234-0.75-0.359-1.188-0.359-0.531 0-1.016 0.219-1.375 0.578l-3.672-4.875c-0.516-0.688-0.359-1.656 0.359-2.141 0.672-0.469 1.594-0.25 2.094 0.406l4.156 5.5-4.094-7.109c-0.438-0.734-0.187-1.687 0.578-2.094 0.719-0.375 1.625-0.078 2.031 0.625l3.766 6.563-2.125-5.266c-0.297-0.75-0.094-1.656 0.625-2.031 0.766-0.406 1.703-0.078 2.063 0.703l3.016 6.484 1.578 3.063c0.25 0.484 0.984 0.281 0.953-0.25l-0.187-3.5c-0.047-0.859 0.625-1.578 1.484-1.594 0.812 0 1.469 0.688 1.516 1.5z"></path>
</symbol>
<symbol id="icon-pen-tool" viewBox="0 0 24 24">
<path d="M18.707 13.707l0.293-0.293 1.586 1.586-5.586 5.586-1.586-1.586 0.293-0.293zM2.252 1.032c-0.035-0.009-0.070-0.016-0.106-0.021-0.143-0.022-0.284-0.011-0.417 0.026-0.132 0.037-0.259 0.102-0.37 0.195-0.092 0.077-0.171 0.171-0.231 0.279-0.060 0.106-0.099 0.22-0.116 0.337-0.020 0.128-0.015 0.255 0.012 0.371 0.001 0.005 0.003 0.011 0.004 0.016l0.004 0.017 3.496 14.483c0.094 0.388 0.403 0.669 0.776 0.746l5.765 1.153c-0.141 0.359-0.067 0.783 0.224 1.073l3 3c0.391 0.391 1.024 0.391 1.414 0l7-7c0.391-0.391 0.391-1.024 0-1.414l-3-3c-0.29-0.29-0.714-0.365-1.073-0.224l-1.153-5.765c-0.078-0.392-0.376-0.684-0.746-0.776zM14 11c0-0.828-0.337-1.58-0.879-2.121s-1.293-0.879-2.121-0.879c-0.463 0-0.902 0.105-1.293 0.293l-4.487-4.487 10.425 2.516 1.27 6.349-4.243 4.243-6.349-1.27-2.517-10.424 4.487 4.487c-0.188 0.391-0.293 0.83-0.293 1.293 0 0.828 0.337 1.58 0.879 2.121s1.293 0.879 2.121 0.879 1.58-0.337 2.121-0.879 0.879-1.293 0.879-2.121zM12 11c0 0.276-0.111 0.525-0.293 0.707s-0.431 0.293-0.707 0.293-0.525-0.111-0.707-0.293-0.293-0.431-0.293-0.707c0-0.27 0.106-0.514 0.281-0.695 0.004-0.004 0.008-0.008 0.013-0.012s0.008-0.008 0.012-0.013c0.18-0.174 0.424-0.28 0.694-0.28 0.276 0 0.525 0.111 0.707 0.293s0.293 0.431 0.293 0.707z"></path>
</symbol>
<symbol id="icon-bookmark" viewBox="0 0 20 20">
<path d="M14 2v17l-4-4-4 4v-17c0-0.553 0.585-1.020 1-1h6c0.689-0.020 1 0.447 1 1z"></path>
</symbol>
<symbol id="icon-chevron-thin-right" viewBox="0 0 20 20">
<path d="M13.25 10l-7.141-7.42c-0.268-0.27-0.268-0.707 0-0.979 0.268-0.27 0.701-0.27 0.969 0l7.83 7.908c0.268 0.271 0.268 0.709 0 0.979l-7.83 7.908c-0.268 0.271-0.701 0.27-0.969 0s-0.268-0.707 0-0.979l7.141-7.417z"></path>
</symbol>
<symbol id="icon-aircraft-take-off" viewBox="0 0 20 20">
<path d="M19.87 6.453c0.119 0.257 0.127 1.29-4.884 3.642l-4.913 2.306c-1.71 0.803-4.191 1.859-5.285 2.151-0.766 0.204-1.497-0.316-1.497-0.316s-2.206-1.975-2.792-2.419c-0.585-0.444-0.535-0.67 0.215-0.91 0.467-0.149 3.13 0.493 4.265 0.78 1.339-0.8 2.562-1.486 3.141-1.798-1.396-1.033-4.008-2.962-4.841-3.55-0.799-0.565 0.010-0.768 0.010-0.768 0.368-0.099 1.162-0.228 1.562-0.144 2.721 0.569 7.263 2.071 7.611 2.186 0.832-0.436 2.128-1.092 2.922-1.465 2.075-0.974 4.327-0.037 4.486 0.305z"></path>
</symbol>
<symbol id="icon-chat" viewBox="0 0 20 20">
<path d="M5.8 12.2v-6.2h-3.8c-1.1 0-2 0.9-2 2v6c0 1.1 0.9 2 2 2h1v3l3-3h5c1.1 0 2-0.9 2-2v-1.82c-0.064 0.014-0.132 0.021-0.2 0.021l-7-0.001zM18 1h-9c-1.1 0-2 0.9-2 2v8h7l3 3v-3h1c1.1 0 2-0.899 2-2v-6c0-1.1-0.9-2-2-2z"></path>
</symbol>
<symbol id="icon-home" viewBox="0 0 20 20">
<path d="M18.672 11h-1.672v6c0 0.445-0.194 1-1 1h-4v-6h-4v6h-4c-0.806 0-1-0.555-1-1v-6h-1.672c-0.598 0-0.47-0.324-0.060-0.748l8.024-8.032c0.195-0.202 0.451-0.302 0.708-0.312 0.257 0.010 0.513 0.109 0.708 0.312l8.023 8.031c0.411 0.425 0.539 0.749-0.059 0.749z"></path>
</symbol>
<symbol id="icon-key" viewBox="0 0 20 20">
<path d="M17.691 4.725c-0.503-2.977-3.22-4.967-6.069-4.441s-5.256 2.816-4.753 5.795c0.107 0.641 0.408 1.644 0.763 2.365l-5.175 7.723c-0.191 0.285-0.299 0.799-0.242 1.141l0.333 1.971c0.058 0.342 0.372 0.572 0.7 0.514l1.516-0.281c0.328-0.059 0.744-0.348 0.924-0.639l2.047-3.311 0.018-0.022 1.386-0.256 2.39-3.879c0.785 0.139 1.912 0.092 2.578-0.031 2.848-0.526 4.087-3.67 3.584-6.649zM15.166 6.252c-0.784 1.17-1.584 0.346-2.703-0.475-1.119-0.818-2.135-1.322-1.352-2.492s2.326-1.455 3.447-0.635c1.12 0.819 1.391 2.432 0.608 3.602z"></path>
</symbol>
<symbol id="icon-location-pin" viewBox="0 0 20 20">
<path d="M10 2.009c-2.762 0-5 2.229-5 4.99 0 4.774 5 11 5 11s5-6.227 5-11c0-2.76-2.238-4.99-5-4.99zM10 9.76c-1.492 0-2.7-1.209-2.7-2.7s1.208-2.7 2.7-2.7c1.49 0 2.699 1.209 2.699 2.7s-1.209 2.7-2.699 2.7z"></path>
</symbol>
<symbol id="icon-magnifying-glass" viewBox="0 0 20 20">
<path d="M17.545 15.467l-3.779-3.779c0.57-0.935 0.898-2.035 0.898-3.21 0-3.417-2.961-6.377-6.378-6.377s-6.186 2.769-6.186 6.186c0 3.416 2.961 6.377 6.377 6.377 1.137 0 2.2-0.309 3.115-0.844l3.799 3.801c0.372 0.371 0.975 0.371 1.346 0l0.943-0.943c0.371-0.371 0.236-0.84-0.135-1.211zM4.004 8.287c0-2.366 1.917-4.283 4.282-4.283s4.474 2.107 4.474 4.474c0 2.365-1.918 4.283-4.283 4.283s-4.473-2.109-4.473-4.474z"></path>
</symbol>
<symbol id="icon-map" viewBox="0 0 20 20">
<path d="M19.447 3.718l-6-3c-0.281-0.141-0.613-0.141-0.895 0l-5.63 2.815-5.606-1.869c-0.306-0.102-0.64-0.051-0.901 0.138s-0.415 0.49-0.415 0.811v13.001c0 0.379 0.214 0.725 0.553 0.894l6 3c0.141 0.070 0.294 0.106 0.447 0.106s0.307-0.035 0.447-0.106l5.63-2.814 5.606 1.869c0.305 0.1 0.64 0.049 0.901-0.139s0.415-0.49 0.415-0.81v-13.002c0.001-0.379-0.213-0.725-0.552-0.894zM8 5.231l4-2v11.763l-4 2v-11.763zM2 4l4 1.333v11.661l-4-2v-10.994zM18 16.227l-4-1.334v-11.662l4 2v10.996z"></path>
</symbol>
<symbol id="icon-star" viewBox="0 0 20 20">
<path d="M10 1.3l2.388 6.722h6.412l-5.232 3.948 1.871 6.928-5.439-4.154-5.438 4.154 1.87-6.928-5.233-3.948h6.412l2.389-6.722z"></path>
</symbol>
<symbol id="icon-angle-left" viewBox="0 0 11 28">
<path d="M9.797 8.5c0 0.125-0.063 0.266-0.156 0.359l-6.141 6.141 6.141 6.141c0.094 0.094 0.156 0.234 0.156 0.359s-0.063 0.266-0.156 0.359l-0.781 0.781c-0.094 0.094-0.234 0.156-0.359 0.156s-0.266-0.063-0.359-0.156l-7.281-7.281c-0.094-0.094-0.156-0.234-0.156-0.359s0.063-0.266 0.156-0.359l7.281-7.281c0.094-0.094 0.234-0.156 0.359-0.156s0.266 0.063 0.359 0.156l0.781 0.781c0.094 0.094 0.156 0.219 0.156 0.359z"></path>
</symbol>
<symbol id="icon-angle-right" viewBox="0 0 9 28">
<path d="M9.297 15c0 0.125-0.063 0.266-0.156 0.359l-7.281 7.281c-0.094 0.094-0.234 0.156-0.359 0.156s-0.266-0.063-0.359-0.156l-0.781-0.781c-0.094-0.094-0.156-0.219-0.156-0.359 0-0.125 0.063-0.266 0.156-0.359l6.141-6.141-6.141-6.141c-0.094-0.094-0.156-0.234-0.156-0.359s0.063-0.266 0.156-0.359l0.781-0.781c0.094-0.094 0.234-0.156 0.359-0.156s0.266 0.063 0.359 0.156l7.281 7.281c0.094 0.094 0.156 0.234 0.156 0.359z"></path>
</symbol>
</defs>
</svg>
